<svg t="1666589168637" class="icon" viewBox="0 0 1024 1024" version="1.1" xmlns="http://www.w3.org/2000/svg" p-id="2891" xmlns:xlink="http://www.w3.org/1999/xlink"><path d="M217.088 466.944l346.112 346.112 71.68-71.68c-30.72-30.72-30.72-81.92-2.048-114.688l251.904-278.528v-2.048l-200.704-200.704h-2.048l-278.528 251.904c-32.768 28.672-81.92 28.672-114.688-2.048l-71.68 71.68z m446.464 303.104l-71.68 71.68c-16.384 16.384-43.008 16.384-57.344 0l-346.112-346.112c-16.384-16.384-16.384-40.96 0-57.344l71.68-71.68c16.384-16.384 40.96-16.384 57.344-2.048 18.432 16.384 43.008 16.384 59.392 2.048l278.528-251.904c16.384-14.336 43.008-14.336 59.392 2.048l200.704 200.704c16.384 16.384 16.384 43.008 2.048 59.392l-251.904 278.528c-14.336 16.384-14.336 40.96 0 57.344 12.288 18.432 12.288 43.008-2.048 57.344z m-364.544-81.92c8.192-8.192 20.48-8.192 28.672 0 8.192 8.192 8.192 20.48 0 28.672l-194.56 194.56c-8.192 8.192-20.48 8.192-28.672 0-8.192-8.192-8.192-20.48 0-28.672l194.56-194.56z" p-id="2892"></path></svg>