<?xml version="1.0" standalone="no"?><!DOCTYPE svg PUBLIC "-//W3C//DTD SVG 1.1//EN" "http://www.w3.org/Graphics/SVG/1.1/DTD/svg11.dtd"><svg t="1664701717924" class="icon" viewBox="0 0 1024 1024" version="1.1" xmlns="http://www.w3.org/2000/svg" p-id="2344" xmlns:xlink="http://www.w3.org/1999/xlink" width="200" height="200"><path d="M664.81 64.077H157.701v892.9h707.066v-701.12L664.81 64.077z m16.897 890.327c-56.8 0-107.555-25.708-141.125-66.05h-313.81V132.7h380.962v187.307h187.962v310.3c42.067 33.316 69.033 84.655 69.033 142.258 0 100.427-81.941 181.839-183.022 181.839z" fill="#819292" p-id="2345"></path><path d="M309.646 417.368h416.653v66.908H309.646zM309.646 576.948h209.427v66.908H309.646zM309.646 736.529h131.718v66.908H309.646z" fill="#819292" p-id="2346"></path><path d="M795.696 630.308c-31.273-24.768-70.888-39.578-113.989-39.578-101.08 0-183.022 81.411-183.022 181.837 0 43.994 15.727 84.337 41.897 115.787 33.57 40.342 84.325 66.05 141.125 66.05 101.08 0 183.022-81.411 183.022-181.837 0-57.603-26.966-108.942-69.033-142.259z m-139.89 273.27V752.446l-43.105 42.826-36.63-36.393 109.672-108.961 36.63 36.393-0.876 0.87 65.848 65.422-36.63 36.393-43.105-42.826v157.408h-51.804z" fill="#E8B23A" p-id="2347"></path><path d="M707.609 746.17l43.105 42.826 36.63-36.393-65.848-65.422 0.876-0.87-36.63-36.393L576.07 758.879l36.631 36.393 43.105-42.826v151.132h51.803z" fill="#FFFFFF" p-id="2348"></path></svg>